<svg xmlns="http://www.w3.org/2000/svg" width="800" height="600" viewBox="0 0 800 600"><defs><linearGradient id="b" x1="0" y1="0" x2="1" y2="1"><stop offset="0" stop-color="#C9A87C"/><stop offset="1" stop-color="#8A6A3A"/></linearGradient></defs><rect width="800" height="600" fill="url(#b)"/><path d="M0 420 Q 200 320 400 400 T 800 380 L800 600 L0 600 Z" fill="rgba(0,0,0,0.15)"/><circle cx="620" cy="150" r="70" fill="rgba(255,255,255,0.35)"/><ellipse cx="682" cy="547" rx="32" ry="14" fill="rgba(30,70,40,0.5)"/><ellipse cx="753" cy="498" rx="29" ry="10" fill="rgba(30,70,40,0.5)"/><ellipse cx="492" cy="490" rx="23" ry="11" fill="rgba(30,70,40,0.5)"/><ellipse cx="525" cy="415" rx="24" ry="14" fill="rgba(30,70,40,0.5)"/><ellipse cx="152" cy="463" rx="30" ry="16" fill="rgba(30,70,40,0.5)"/><ellipse cx="528" cy="420" rx="23" ry="17" fill="rgba(30,70,40,0.5)"/><ellipse cx="431" cy="540" rx="26" ry="12" fill="rgba(30,70,40,0.5)"/><ellipse cx="460" cy="540" rx="26" ry="16" fill="rgba(30,70,40,0.5)"/><ellipse cx="387" cy="497" rx="25" ry="12" fill="rgba(30,70,40,0.5)"/><ellipse cx="104" cy="445" rx="22" ry="13" fill="rgba(30,70,40,0.5)"/><ellipse cx="694" cy="459" rx="18" ry="17" fill="rgba(30,70,40,0.5)"/><ellipse cx="623" cy="446" rx="26" ry="14" fill="rgba(30,70,40,0.5)"/><ellipse cx="24" cy="437" rx="31" ry="18" fill="rgba(30,70,40,0.5)"/><ellipse cx="398" cy="556" rx="28" ry="12" fill="rgba(30,70,40,0.5)"/><ellipse cx="727" cy="531" rx="19" ry="17" fill="rgba(30,70,40,0.5)"/><ellipse cx="716" cy="543" rx="30" ry="16" fill="rgba(30,70,40,0.5)"/><ellipse cx="428" cy="500" rx="21" ry="17" fill="rgba(30,70,40,0.5)"/><ellipse cx="669" cy="502" rx="19" ry="13" fill="rgba(30,70,40,0.5)"/><ellipse cx="88" cy="453" rx="32" ry="12" fill="rgba(30,70,40,0.5)"/><ellipse cx="132" cy="487" rx="19" ry="11" fill="rgba(30,70,40,0.5)"/><ellipse cx="20" cy="545" rx="22" ry="18" fill="rgba(30,70,40,0.5)"/><ellipse cx="123" cy="493" rx="18" ry="11" fill="rgba(30,70,40,0.5)"/><ellipse cx="232" cy="557" rx="30" ry="12" fill="rgba(30,70,40,0.5)"/><ellipse cx="669" cy="464" rx="29" ry="15" fill="rgba(30,70,40,0.5)"/><text x="400" y="560" text-anchor="middle" font-family="Segoe UI, Arial" font-size="30" font-weight="700" fill="rgba(255,255,255,0.9)">Story Image 2 - Sh&#x1B0;n Tr&#xE0;</text></svg>